<svg role="img" viewBox="0 0 24 24" xmlns="http://www.w3.org/2000/svg"><title>YouTube</title><path fill="#FF0000" d="M23.498 6.186c-.273-1.034-1.081-1.848-2.12-2.122C19.411 3.5 12 3.5 12 3.5s-7.411 0-9.378.564c-1.039.274-1.847 1.088-2.12 2.122C.001 8.155 0 12 0 12s.001 3.845.502 5.814c.273 1.034 1.081 1.848 2.12 2.122C4.589 20.5 12 20.5 12 20.5s7.411 0 9.378-.564c1.039-.274 1.847-1.088 2.12-2.122.501-1.969.502-5.814.502-5.814s-.001-3.845-.502-5.814zM9.545 15.568V8.432L15.818 12l-6.273 3.568z"/></svg>

